<svg version="1" xmlns="http://www.w3.org/2000/svg" width="400" height="400" viewBox="0 0 300.000000 300.000000"><path d="M0 150v150h300V0H0v150zm107.4-66.3l3.8 7.8 3.9-7.8L119 76h56.1l-11.7 22.7c-6.5 12.6-14.6 28.2-18 34.8l-6.3 11.9 6.1 11.6c3.4 6.3 6.4 11.9 6.8 12.3.4.5 11.7-20.3 25.1-46.2L201.5 76h27.9c24.2 0 27.7.2 27.2 1.5-.3.8-17.4 34-38 73.7l-37.5 72.3-28.3.3-28.3.2-6.5-12.4-6.4-12.5-3.7 6.5c-1.9 3.6-4.9 9.2-6.4 12.4l-2.9 6H70.7c-24.7 0-27.8-.2-27.3-1.5.3-.9 9.3-18.5 20.1-39.2 10.7-20.6 19.5-38 19.5-38.5s-6.2-12.9-13.9-27.6c-7.6-14.7-15.5-30-17.5-34L48 76h55.6l3.8 7.7z"/></svg>