<svg id="Layer_1" data-name="Layer 1" xmlns="http://www.w3.org/2000/svg" xmlns:xlink="http://www.w3.org/1999/xlink"
     viewBox="0 0 200.96 29.6">
    <defs>
        <style>
            .cls-1{fill:none;}.cls-2{fill:#cdd5db;}.cls-3{fill:#a4b2bb;}.cls-3,.cls-6{fill-rule:evenodd;}.cls-4,.cls-6{fill:#fff;}.cls-5{clip-path:url(#clip-path);}
        </style>
        <clipPath id="clip-path" transform="translate(0 0)">
            <rect class="cls-1" width="200.96" height="29.6"/>
        </clipPath>
    </defs>
    <title>logo-mobile</title>
    <polygon class="cls-2" points="1.03 0 16.39 29.6 21.76 29.6 22.1 29.6 27.47 29.6 12.11 0 1.03 0"/>
    <polygon class="cls-3" points="9.2 15.77 14.73 26.46 20.28 15.77 14.73 5.09 9.2 15.77"/>
    <polygon class="cls-4" points="15.36 0 0 29.6 11.11 29.6 26.47 0 15.36 0"/>
    <polygon class="cls-4" points="31.81 0 16.45 29.6 27.56 29.6 42.89 0 31.81 0"/>
    <g class="cls-5">
        <path class="cls-6"
              d="M113.74,11.26h4.6V21.74H110.8c1.29-1.91,1.26-4.83,1.74-8l0.11-.94a5.85,5.85,0,0,1,.09-0.77l0.09-.77h0.91Zm85.87-6.89h0V7.63H188.79v3.63c4.05-1.63,8.14-.69,10.48,2a7.25,7.25,0,0,1,1.29,7.06c-1.46,4.37-6.74,5.86-10.88,5.14-3.2-.54-4.37-2.14-5.8-3.37l2.23-2.37c2.2,1.49,3.37,2.51,6.25,2.46a5.52,5.52,0,0,0,3.77-1.31c3.51-3.4-1.06-9.77-7.31-5.71h0V15.2h-3.6V4.37h14.42Zm-88.16,3.2h-1.94l-0.14,1.14c-0.11.54-.11,1.32-0.28,2.46s-0.4,2.77-.66,4.26c-0.68,4-.11,6-3.85,6.31v6.54h3.6L108.52,25h11.79c0.2,2,.14,1.34.31,3.26h3.28V21.74h-1.63V7.63c-5.94,0-9.11-.14-10.82-0.06m18,0.06h1v10.8l4.37-5.4c1.46-2,2.83-3.46,4.14-5.4h3.6V25h-3.94V14.2L130.14,25h-3.6V7.63h2.94Zm-42.89,0H70.19v3.63h6.23V25h3.94V11.26h6.23V7.63ZM173.06,7l1.31,2.63,2.94-1V25h3.63V4.37c-1.77,0-2.2,0-2.88.06-1,.49-4,2-5,2.54M95.44,21.09C94.58,22.2,94,22,92.61,21.86L92.15,25c3.88,0.77,5.23.06,7.11-3.4,2.86-5.28,4.51-8.31,7-14h-3.94L97.41,16.8C97,16.09,96.7,15.69,96.3,15L92.5,7.63H88c0.63,1.31.8,1.6,1.77,3.4l1.88,3.37c1.37,2.23,2.6,4.43,3.8,6.69m-39.21,3.8c4.23,1.71,8.57.06,12.34-2.49a33.85,33.85,0,0,1-2.28-3c-2.68,1.8-6.17,3.46-9.51,1.66-5.37-2.86-4.6-11.57,1.11-13.31,3.71-1.14,5.34.4,8.4,2.17l2.28-2.63C64.4,3.2,59,2.8,54.94,5a10.89,10.89,0,0,0,1.28,19.86M149.16,14.2c0-3.6,2.77-2.89,7.57-2.94l-0.06,5.89c-4.88-.2-7.51.8-7.51-2.94m-3.94,0a5.84,5.84,0,0,0,2.94,5.57L144.87,25h4.6l2.63-4.29h4.57V25h3.94V7.63c-4.4,0-10.88-.77-13.54,1.89a6.81,6.81,0,0,0-1.86,4.69"
              transform="translate(0 0)"/>
    </g>
</svg>