<svg xmlns="http://www.w3.org/2000/svg" viewBox="0 0 462.52 96.67"><title>ruward</title><path d="M165.92 72.64q1.73.38 3.31.79a26.36 26.36 0 0 1 3.08 1v2.18h-19.77v-2.17a18.61 18.61 0 0 1 3.16-1.13q1.5-.38 3-.68V28.07a28.72 28.72 0 0 1-3.46-.86q-1.5-.49-2.71-1V24h6.62q3 0 6.59-.3t7-.3a27.52 27.52 0 0 1 6.89.83 15.13 15.13 0 0 1 5.54 2.63 12.4 12.4 0 0 1 3.65 4.58 15.51 15.51 0 0 1 1.32 6.69 14 14 0 0 1-2.9 9.09 16 16 0 0 1-7.88 5.19q3.23 5.11 6.76 10.15t7.37 10l4.09 2.18v1.88h-9.15l-2.86-2.1q-2.1-2.63-3.83-5.15t-3.23-5.11q-1.51-2.6-2.84-5.26T173 53.32h-7.09v19.32zM171 27.32q-1.8 0-3 .08a13.41 13.41 0 0 0-2.14.3V50h5.41a10.68 10.68 0 0 0 8.23-3.28 12.24 12.24 0 0 0 3-8.66q0-5.53-3.23-8.14a12.85 12.85 0 0 0-8.27-2.6zM195.43 24h19.09v2.17q-1.43.6-2.86 1t-2.86.82V58.7a21.74 21.74 0 0 0 .86 6.63 10.25 10.25 0 0 0 2.52 4.27 9.59 9.59 0 0 0 4.1 2.32 19.74 19.74 0 0 0 5.52.71q5.94 0 9.24-3.26t3.31-10.75V28.73q-1.73-.6-3.23-1.24a26.89 26.89 0 0 1-2.71-1.31V24h16v2.18q-1.43.83-2.89 1.5a16.86 16.86 0 0 1-3 1.05v30.15a23.89 23.89 0 0 1-1.28 8.27 15.32 15.32 0 0 1-3.57 5.71 14.2 14.2 0 0 1-5.56 3.34 22.87 22.87 0 0 1-7.25 1.09q-9.4 0-14.36-4.25t-5-13V28.07a22.3 22.3 0 0 1-6.16-1.88V24zm112.01 4.07a20.41 20.41 0 0 1-3.16-.71q-1.58-.49-3.31-1.17V24h16.84v2.18a36.22 36.22 0 0 1-5.41 1.88l-12.56 48.56-4.66.9-12.1-40.89-11.88 40-4.58.9-13.3-49.46q-1.5-.37-2.93-.83a26.31 26.31 0 0 1-2.78-1.05V24h19.54v2.18q-1.43.53-2.93 1a33.26 33.26 0 0 1-3.23.86l7.44 30.29 1.65 9.77h.15l2.63-9.92L283 24h2.55l10.9 34.2 2.19 9.8h.15l1.73-9.92zm20.42 48.55h-16.68v-2.18a28.68 28.68 0 0 1 5.41-1.8l19-49.53h2.18l19 49.53q1.5.3 3 .68a10.62 10.62 0 0 1 2.74 1.13v2.18h-19.39v-2.19a31.7 31.7 0 0 1 3.08-1.05q1.58-.45 3.08-.75l-5.08-13.76h-17.87l-4.93 13.76a27.32 27.32 0 0 1 6.46 1.8v2.18zm0-21.65h15.1L337 39l-1.42-6.46h-.15l-1.87 6.61zm51.81 17.67q1.73.38 3.31.79a26.38 26.38 0 0 1 3.08 1v2.18h-19.77v-2.17a18.6 18.6 0 0 1 3.16-1.13q1.5-.38 3-.68V28.07a28.66 28.66 0 0 1-3.45-.87q-1.5-.49-2.71-1V24h6.62q3 0 6.59-.3t7-.3a27.53 27.53 0 0 1 6.89.83 15.13 15.13 0 0 1 5.54 2.63 12.42 12.42 0 0 1 3.65 4.58 15.53 15.53 0 0 1 1.32 6.69 14 14 0 0 1-2.9 9.09 16 16 0 0 1-7.88 5.19q3.23 5.11 6.76 10.15t7.37 10l4.09 2.18v1.88h-9.15l-2.86-2.1q-2.11-2.63-3.83-5.15t-3.23-5.11q-1.5-2.59-2.82-5.26t-2.67-5.67h-7.09v19.31zm5.11-45.32q-1.8 0-3 .08a13.44 13.44 0 0 0-2.14.3V50h5.41a10.67 10.67 0 0 0 8.23-3.28 12.24 12.24 0 0 0 3-8.66q0-5.53-3.23-8.14a12.85 12.85 0 0 0-8.27-2.6zm30.61 49.3v-2.18a24.91 24.91 0 0 1 6.16-1.8V28.07q-1.73-.37-3.31-.86t-2.86-1V24h7.67q1.28 0 3-.08t3.57-.19l3.53-.23q1.69-.11 2.82-.11 12.78 0 19.65 6.84t6.88 19.39a34.63 34.63 0 0 1-1.69 11 23.44 23.44 0 0 1-5.15 8.76 23.89 23.89 0 0 1-8.76 5.79 33.81 33.81 0 0 1-12.51 2.1q-1.13 0-2.56-.11l-3-.23-3.19-.23q-1.62-.11-3-.11h-7.21zm19.54-49.3h-3.76a15.85 15.85 0 0 0-2.86.26v45.58a10 10 0 0 0 1.35.11l2.1.08h3.61a18.25 18.25 0 0 0 8.79-2 17 17 0 0 0 5.9-5.22 22.29 22.29 0 0 0 3.34-7.55 37.71 37.71 0 0 0 1.05-9 30.62 30.62 0 0 0-1-7.63 22 22 0 0 0-3.31-7.22 18 18 0 0 0-6-5.37 18.52 18.52 0 0 0-9.21-2.04z"/><path d="M19.47 28.63A68 68 0 0 0 0 76.62h35.31a34.05 34.05 0 0 1 9-23.09z" fill="#bace10"/><path d="M68.64 7.32c-17.23 0-36.53 8.67-47.85 20 3.93 3.93 21.57 21.82 24.71 25a34.05 34.05 0 0 1 23.14-9.82V7.32z" fill="#e1b147"/><path d="M119.51 28.63l-24.82 24.9a34.05 34.05 0 0 1 9 23.09H139a68 68 0 0 0-19.49-47.99z" fill="#a21e2c"/><path d="M118.19 27.31c-11.32-11.32-30.62-20-47.85-20v35.15a34.05 34.05 0 0 1 23.14 9.82c3.14-3.15 20.78-21.04 24.71-24.97z" fill="#fd6201"/><path d="M74.53 77.54a4.18 4.18 0 0 0-2.7-5L90 .1l-.18-.1-24.45 96.61a1.76 1.76 0 0 0 2.14-1.27l2.31-9.12a1.76 1.76 0 0 0-.93-2l.9-3.58a4.18 4.18 0 0 0 4.74-3.1z"/><path d="M89.64 0L71.16 72.4a4.18 4.18 0 0 0-2.06 8.06L68.19 84a1.76 1.76 0 0 0-1.77 1.32l-2.31 9.12a1.76 1.76 0 0 0 1.26 2.13L89.82 0z" fill="#707070"/></svg>