<svg id="Layer_1" data-name="Layer 1" xmlns="http://www.w3.org/2000/svg" xmlns:xlink="http://www.w3.org/1999/xlink" viewBox="0 0 717.07 717.07"><defs><style>.cls-1{fill:none;}.cls-2{clip-path:url(#clip-path);}.cls-3{fill:#fdf2f5;}.cls-4{fill:#d61234;}</style><clipPath id="clip-path" transform="translate(0 0)"><rect class="cls-1" width="717.07" height="717.07"/></clipPath></defs><title>phone-icon</title><g class="cls-2"><path class="cls-3" d="M717.07,358.54c0,198-160.52,358.54-358.54,358.54S0,556.55,0,358.54,160.52,0,358.54,0,717.07,160.52,717.07,358.54" transform="translate(0 0)"/><path class="cls-4" d="M253,411.77c-32.45-39-54.16-75.25-68.59-114.11-8.76-23.56-12.09-41.82-10.61-59.09,0.87-10.61,5.06-19.49,13-27.38l32.32-32.32c3-2.84,7.65-6.29,13.2-6.29,5.31,0,9.75,3.33,12.83,6.41,5.79,5.43,11.35,11.11,17.27,17.15,3,3.09,6,6.17,9.13,9.25l26.15,26.15c3.21,3.2,6.91,8,6.91,13.32s-3.82,10.11-6.91,13.32c-2.84,2.84-5.55,5.55-8.26,8.38-8,8.14-15.67,15.91-23.93,23.32l-0.62.61c-9,9-7.4,18-5.43,23.93,0.12,0.37.25,0.62,0.37,1,6.91,16.65,16.53,32.45,31.45,51.2,26.65,32.81,54.65,58.35,85.62,78a113.73,113.73,0,0,0,12,6.54c3.33,1.73,6.54,3.33,9.25,5.06,0.49,0.25.86,0.49,1.36,0.74,9.5,4.69,18.88,3.08,26.53-4.69l32.81-32.82c3-3,7.65-6.54,13-6.54s9.5,3.45,12.46,6.54l52.92,52.92c8.76,8.76,8.76,17.52-.37,27-3.58,3.82-7.53,7.52-11.6,11.47-6.17,6-12.7,12.21-18.62,19.25-9.25,9.87-20.11,14.43-34.42,14.43-1.48,0-2.84,0-4.32-.13-28.12-1.85-54.4-12.83-74-22.2C339.84,496,292.47,458.89,253,411.77" transform="translate(0 0)"/></g></svg>