<svg id="Layer_1" data-name="Layer 1" xmlns="http://www.w3.org/2000/svg" viewBox="0 0 51.2 50.84"><defs><style>.cls-1{fill:none}.cls-2{clip-path:url(#clip-path)}.cls-3{fill:#d52732}</style><clipPath id="clip-path"><path class="cls-1" d="M0 0h51.2v50.84H0z"/></clipPath></defs><title>phone-popup-close</title><g class="cls-2"><path class="cls-3" d="M23.15 25.43L.49 48.09a1.61 1.61 0 0 0 0 2.28 1.61 1.61 0 0 0 2.28 0L25.6 27.54l22.83 22.83a1.61 1.61 0 0 0 2.28 0 1.61 1.61 0 0 0 0-2.28L28 25.43 50.73 2.75A1.61 1.61 0 0 0 48.45.47L25.6 23.32 2.75.47A1.61 1.61 0 0 0 .47 2.75z"/></g></svg>