<svg xmlns="http://www.w3.org/2000/svg" viewBox="0 0 138.4 19.2"><path d="M0 .4C.6.3 1.2.2 1.9.1a16.22 16.22 0 0 1 4.4.1 6.79 6.79 0 0 1 2 .7 4 4 0 0 1 1.4 1.5 5.83 5.83 0 0 1 .5 2.5 5.21 5.21 0 0 1-.5 2.3 4 4 0 0 1-1.2 1.6 6.63 6.63 0 0 1-1.9.9 12.48 12.48 0 0 1-2.1.2H2.9V15H0V.4zm4.3 2.1h-.8a.92.92 0 0 0-.6.1v4.8h1.4a3.75 3.75 0 0 0 1.1-.1 3 3 0 0 0 1-.4 2.7 2.7 0 0 0 .7-.8 2.5 2.5 0 0 0 .3-1.3A7.6 7.6 0 0 1 7 3.7a1.58 1.58 0 0 0-.7-.7 3.55 3.55 0 0 0-.9-.4 4.48 4.48 0 0 0-1.1-.1zM19.6 14a8.72 8.72 0 0 1-1.7.9 8.52 8.52 0 0 1-2.3.3 4.41 4.41 0 0 1-3.7-1.5 6.26 6.26 0 0 1-1.2-4.1A6 6 0 0 1 12 5.4 5 5 0 0 1 15.7 4a8.75 8.75 0 0 1 1.6.2 2.73 2.73 0 0 1 1.3.7 4.28 4.28 0 0 1 .9 1.3 5.44 5.44 0 0 1 .4 2 2.77 2.77 0 0 1-.1.9c-.1.3-.1.7-.2 1.1h-6.3a3 3 0 0 0 .7 2 2.82 2.82 0 0 0 2 .7 3.34 3.34 0 0 0 1.5-.3l1-.5zm-3.9-7.7a2.11 2.11 0 0 0-1.6.6 3.78 3.78 0 0 0-.6 1.7h3.9a2.73 2.73 0 0 0-.3-1.7 1.68 1.68 0 0 0-1.4-.6zm12.5 3.8l.1-1.5h-.1l-.9 1.5-3.7 4.7h-1.7V4.4h2.7v5l-.1 1.4h.1l.9-1.5 3.8-4.9H31v10.5h-2.7v-4.8h-.1zM25.3.1a3.34 3.34 0 0 0 .5 1.2 1.5 1.5 0 0 0 1.8 0 2.26 2.26 0 0 0 .5-1.1l2.1.5a3.12 3.12 0 0 1-1.2 2 4.45 4.45 0 0 1-2.3.7 5.7 5.7 0 0 1-1.3-.1 3.7 3.7 0 0 1-1.1-.5 3 3 0 0 1-.8-.8A2.11 2.11 0 0 1 23 .7zm15.6 6.7h-3v8.1h-2.8V6.8h-3V4.4h8.7v2.4h.1zm7.5 3.3l.1-1.5h-.1l-.9 1.5-3.7 4.7h-1.7V4.4h2.7v5l-.1 1.4h.1l.9-1.5 3.8-4.9h1.7v10.5h-2.7v-4.8h-.1zm11.3.7h-3.4v4.1h-2.7V4.4h2.7v3.9h3.4V4.4h2.7v10.5h-2.7v-4.1zm11.9-4h-4v8.1h-2.8V4.4h6.8v2.4zM77.4.4c.6-.1 1.2-.2 1.9-.3a14.77 14.77 0 0 1 2.1-.1 16.35 16.35 0 0 1 2.2.2 6.79 6.79 0 0 1 2 .7A4 4 0 0 1 87 2.4a4.63 4.63 0 0 1 .6 2.5 5.21 5.21 0 0 1-.5 2.3 4 4 0 0 1-1.3 1.6 5.08 5.08 0 0 1-1.8.9 7.61 7.61 0 0 1-2.1.3h-1.6v5.1h-2.9V.4zm4.3 2.1h-.8a.92.92 0 0 0-.6.1v4.8h1.4a3.75 3.75 0 0 0 1.1-.1 3 3 0 0 0 1-.4 2.7 2.7 0 0 0 .7-.8 2.5 2.5 0 0 0 .3-1.3 1.8 1.8 0 0 0-.3-1.1 2.34 2.34 0 0 0-.7-.7 3.55 3.55 0 0 0-.9-.4 5.74 5.74 0 0 0-1.2-.1zm11.5 7.8l.4 1.6h.1l.3-1.7 1.6-5.9h2.8l-3.2 9.5c-.3.8-.5 1.5-.8 2.2a6.71 6.71 0 0 1-.8 1.7 3.57 3.57 0 0 1-1 1.1 2 2 0 0 1-1.3.4 2.86 2.86 0 0 1-1.7-.4l.5-2.2a1.27 1.27 0 0 0 .6.1 1.22 1.22 0 0 0 .9-.4 3.49 3.49 0 0 0 .7-1.5L87.9 4.4h3.3zm12.3.5h-3.4v4.1h-2.7V4.4h2.7v3.9h3.4V4.4h2.7v10.5h-2.7v-4.1zM119 14a8.72 8.72 0 0 1-1.7.9 8.52 8.52 0 0 1-2.3.3 4.41 4.41 0 0 1-3.7-1.5 6.26 6.26 0 0 1-1.2-4.1 6 6 0 0 1 1.3-4.2 5 5 0 0 1 3.7-1.4 8.75 8.75 0 0 1 1.6.2 2.73 2.73 0 0 1 1.3.7 4.28 4.28 0 0 1 .9 1.3 5.44 5.44 0 0 1 .4 2 2.77 2.77 0 0 1-.1.9c-.1.3-.1.7-.2 1.1h-6.3a3 3 0 0 0 .7 2 2.82 2.82 0 0 0 2 .7 3.34 3.34 0 0 0 1.5-.3l1-.5zm-3.8-7.7a2.11 2.11 0 0 0-1.6.6 3.78 3.78 0 0 0-.6 1.7h3.9a2.73 2.73 0 0 0-.3-1.7 1.82 1.82 0 0 0-1.4-.6zm13.7.5h-3v8.1h-2.8V6.8h-3V4.4h8.7v2.4h.1zM130 5a5.87 5.87 0 0 1 2-.6 19.42 19.42 0 0 1 2.4-.2 4.84 4.84 0 0 1 1.8.3 3.46 3.46 0 0 1 1.2.7 2.28 2.28 0 0 1 .6 1.2 6.8 6.8 0 0 1 .2 1.5 12.75 12.75 0 0 1-.1 1.9c0 .6-.1 1.2-.1 1.8a10.87 10.87 0 0 0 .1 1.8 4.15 4.15 0 0 0 .3 1.6h-2.2l-.4-1.4h-.1a4.26 4.26 0 0 1-1.2 1.1 3.56 3.56 0 0 1-1.9.5 5.07 5.07 0 0 1-1.3-.2 3.33 3.33 0 0 1-1-.6 3.59 3.59 0 0 1-.7-1 2.74 2.74 0 0 1-.2-1.3 2.73 2.73 0 0 1 .4-1.6 4.26 4.26 0 0 1 1.2-1.1 5.31 5.31 0 0 1 1.9-.6 19.29 19.29 0 0 1 2.5-.1 2.83 2.83 0 0 0-.2-1.7 1.67 1.67 0 0 0-1.4-.5 11.14 11.14 0 0 0-1.7.2 15.46 15.46 0 0 0-1.5.4zm3.5 7.8a1.84 1.84 0 0 0 1.3-.4 1.78 1.78 0 0 0 .7-.8v-1.4h-1.2a3.6 3.6 0 0 0-1.1.2 1.18 1.18 0 0 0-.7.4 1.49 1.49 0 0 0-.3.7 1.22 1.22 0 0 0 .3.9 1.53 1.53 0 0 0 1 .4z" fill="#010101"/></svg>