<svg xmlns="http://www.w3.org/2000/svg" viewBox="0 0 200 90"><title>top-100</title><path d="M3.05 12.16V3.55H0v-.73h6.92v.73H3.87v8.61h-.82zM8.32 7.5a4.55 4.55 0 1 1 9.08 0 4.55 4.55 0 1 1-9.08 0zm8.24 0c0-2.38-1.46-4.1-3.7-4.1s-3.7 1.72-3.7 4.1 1.43 4.1 3.7 4.1 3.7-1.75 3.7-4.1zm10.15 4.66V3.55h-5.92v8.61H20V2.82h7.54v9.34h-.83zm3.37-3.05v-.67h3.36v.67h-3.36zm6.66 3.05V3.91l-1.5 1.6-.49-.51 2.05-2.18h.73v9.34h-.8zm3.59-4.66c0-2.23.94-4.82 3.46-4.82s3.45 2.59 3.45 4.82-1 4.83-3.45 4.83-3.46-2.62-3.46-4.83zm6.05 0c0-1.93-.63-4.09-2.59-4.09s-2.62 2.16-2.62 4.09.64 4.1 2.62 4.1 2.59-2.18 2.59-4.1zm3.29 0c0-2.23.94-4.82 3.46-4.82s3.45 2.59 3.45 4.82-1 4.83-3.45 4.83-3.46-2.62-3.46-4.83zm6.05 0c0-1.93-.63-4.09-2.59-4.09s-2.62 2.16-2.62 4.09.64 4.1 2.62 4.1 2.59-2.18 2.59-4.1z" fill="#fff"/><path fill="#fff" fill-rule="evenodd" d="M115.26 0h.61l-7.79 15h-.61l7.79-15zm3.33 0h.62l-7.79 15h-.61l7.78-15z"/><path d="M87.67 57.16v-8.61h-3.05v-.73h6.92v.73h-3.05v8.61h-.82zm5.28-4.66a4.55 4.55 0 1 1 9.08 0 4.55 4.55 0 1 1-9.08 0zm8.24 0c0-2.38-1.46-4.1-3.7-4.1s-3.7 1.72-3.7 4.1 1.43 4.1 3.7 4.1 3.69-1.75 3.69-4.1zm10.14 4.66v-8.61h-5.93v8.61h-.8v-9.34h7.54v9.34h-.81zm3.37-3.05v-.67h3.36v.67h-3.36zm6.66 3.05v-8.25l-1.5 1.6-.49-.51 2.06-2.17h.73v9.34h-.8zM125 52.5c0-2.23.94-4.82 3.46-4.82s3.45 2.59 3.45 4.82-1 4.83-3.45 4.83S125 54.71 125 52.5zm6.05 0c0-1.93-.63-4.09-2.59-4.09s-2.62 2.16-2.62 4.09.64 4.1 2.62 4.1 2.54-2.18 2.54-4.1zm3.24 0c0-2.23.94-4.82 3.46-4.82s3.45 2.59 3.45 4.82-1 4.83-3.45 4.83-3.46-2.62-3.46-4.83zm6.05 0c0-1.93-.63-4.09-2.59-4.09s-2.62 2.16-2.62 4.09.64 4.1 2.62 4.1 2.59-2.18 2.59-4.1z" fill="#fff"/><path fill="#fff" fill-rule="evenodd" d="M30.61 45h.61l-7.78 15h-.62l7.79-15zm3.34 0h.61l-7.79 15h-.61l7.79-15z"/></svg>